<svg xmlns="http://www.w3.org/2000/svg" style="display:none" aria-hidden="true">

  <symbol id="icon-bars" viewBox="0 0 448 512">
    <path d="M0 96C0 78.3 14.3 64 32 64H416c17.7 0 32 14.3 32 32s-14.3 32-32 32H32C14.3 128 0 113.7 0 96zM0 256c0-17.7 14.3-32 32-32H416c17.7 0 32 14.3 32 32s-14.3 32-32 32H32c-17.7 0-32-14.3-32-32zM448 416c0 17.7-14.3 32-32 32H32c-17.7 0-32-14.3-32-32s14.3-32 32-32H416c17.7 0 32 14.3 32 32z"/>
  </symbol>

  <symbol id="icon-x" viewBox="0 0 320 512">
    <path d="M310.6 150.6c12.5-12.5 12.5-32.8 0-45.3s-32.8-12.5-45.3 0L160 210.7 54.6 105.4c-12.5-12.5-32.8-12.5-45.3 0s-12.5 32.8 0 45.3L114.7 256 9.4 361.4c-12.5 12.5-12.5 32.8 0 45.3s32.8 12.5 45.3 0L160 301.3 265.4 406.6c12.5 12.5 32.8 12.5 45.3 0s12.5-32.8 0-45.3L205.3 256 310.6 150.6z"/>
  </symbol>

  <symbol id="icon-check" viewBox="0 0 512 512">
    <path d="M243.8 339.8C232.9 350.7 215.1 350.7 204.2 339.8L140.2 275.8C129.3 264.9 129.3 247.1 140.2 236.2C151.1 225.3 168.9 225.3 179.8 236.2L224 280.4L332.2 172.2C343.1 161.3 360.9 161.3 371.8 172.2C382.7 183.1 382.7 200.9 371.8 211.8L243.8 339.8zM512 256C512 397.4 397.4 512 256 512C114.6 512 0 397.4 0 256C0 114.6 114.6 0 256 0C397.4 0 512 114.6 512 256zM256 48C141.1 48 48 141.1 48 256C48 370.9 141.1 464 256 464C370.9 464 464 370.9 464 256C464 141.1 370.9 48 256 48z"/>
  </symbol>

  <symbol id="icon-quote" viewBox="0 0 105 78">
    <path d="M25.086 77.292c-4.821 0-9.115-1.205-12.882-3.616-3.767-2.561-6.78-6.102-9.04-10.622C1.054 58.534 0 53.411 0 47.686c0-5.273.904-10.396 2.712-15.368 1.959-4.972 4.746-9.567 8.362-13.786a59.042 59.042 0 0 1 12.43-11.3C28.325 3.917 33.599 1.507 39.324 0l11.074 13.786c-6.479 2.561-11.677 5.951-15.594 10.17-3.767 4.219-5.65 7.835-5.65 10.848 0 1.356.377 2.863 1.13 4.52.904 1.507 2.637 3.089 5.198 4.746 3.767 2.41 6.328 4.972 7.684 7.684 1.507 2.561 2.26 5.5 2.26 8.814 0 5.123-1.959 9.19-5.876 12.204-3.767 3.013-8.588 4.52-14.464 4.52Zm54.24 0c-4.821 0-9.115-1.205-12.882-3.616-3.767-2.561-6.78-6.102-9.04-10.622-2.11-4.52-3.164-9.643-3.164-15.368 0-5.273.904-10.396 2.712-15.368 1.959-4.972 4.746-9.567 8.362-13.786a59.042 59.042 0 0 1 12.43-11.3C82.565 3.917 87.839 1.507 93.564 0l11.074 13.786c-6.479 2.561-11.677 5.951-15.594 10.17-3.767 4.219-5.65 7.835-5.65 10.848 0 1.356.377 2.863 1.13 4.52.904 1.507 2.637 3.089 5.198 4.746 3.767 2.41 6.328 4.972 7.684 7.684 1.507 2.561 2.26 5.5 2.26 8.814 0 5.123-1.959 9.19-5.876 12.204-3.767 3.013-8.588 4.52-14.464 4.52Z"/>
  </symbol>

  <symbol id="icon-task-contacts" viewBox="0 0 36 36">
    <path opacity=".5" d="M25.778 25.778c.39.39 1.027.393 1.384-.028A11.952 11.952 0 0 0 30 18c0-6.627-5.373-12-12-12S6 11.373 6 18c0 2.954 1.067 5.659 2.838 7.75.357.421.993.419 1.384.028.39-.39.386-1.02.036-1.448A9.959 9.959 0 0 1 8 18c0-5.523 4.477-10 10-10s10 4.477 10 10a9.959 9.959 0 0 1-2.258 6.33c-.35.427-.354 1.058.036 1.448Z" fill="#fff"/>
    <path d="M12 28.395V28a6 6 0 0 1 12 0v.395A11.945 11.945 0 0 1 18 30c-2.186 0-4.235-.584-6-1.605ZM21 16.5c0-1.933-.5-3.5-3-3.5s-3 1.567-3 3.5 1.343 3.5 3 3.5 3-1.567 3-3.5Z" fill="#fff"/>
  </symbol>

  <symbol id="icon-task-inventory" viewBox="0 0 36 36">
    <path opacity=".5" d="M8 17a1 1 0 0 1 1-1h18a1 1 0 0 1 1 1v2a1 1 0 0 1-1 1H9a1 1 0 0 1-1-1v-2Z" fill="#fff"/>
    <path opacity=".3" d="M8 24a1 1 0 0 1 1-1h18a1 1 0 0 1 1 1v2a1 1 0 0 1-1 1H9a1 1 0 0 1-1-1v-2Z" fill="#fff"/>
    <path d="M8 10a1 1 0 0 1 1-1h18a1 1 0 0 1 1 1v2a1 1 0 0 1-1 1H9a1 1 0 0 1-1-1v-2Z" fill="#fff"/>
  </symbol>

  <symbol id="icon-task-reporting" viewBox="0 0 36 36" fill="none">
    <path d="m30 15-4 5-4-11-4 18-4-11-4 7-4-5" stroke="#fff" stroke-width="2" stroke-linecap="round" stroke-linejoin="round"/>
  </symbol>

  <symbol id="icon-task-cloud" viewBox="0 0 24 24" fill="none">
    <path d="M3 13.6493C3 16.6044 5.41766 19 8.4 19L16.5 19C18.9853 19 21 16.9839 21 14.4969C21 12.6503 19.8893 10.9449 18.3 10.25C18.1317 7.32251 15.684 5 12.6893 5C10.3514 5 8.34694 6.48637 7.5 8.5C4.8 8.9375 3 11.2001 3 13.6493Z" stroke="#fff" stroke-width="1.5" stroke-linecap="round" stroke-linejoin="round"/>
  </symbol>

</svg>
